<?xml version="1.0" encoding="UTF-8"?> <svg xmlns="http://www.w3.org/2000/svg" width="483" height="127" viewBox="0 0 483 127"><defs><linearGradient id="eem-logo-color-a" x1="42.104%" x2="58.592%" y1="99.404%" y2="-5.012%"><stop offset="0%" stop-color="#0092A4"></stop><stop offset="12.02%" stop-color="#00879E"></stop><stop offset="37.52%" stop-color="#006789"></stop><stop offset="74.14%" stop-color="#1D3568"></stop><stop offset="88.93%" stop-color="#29235C"></stop><stop offset="100%" stop-color="#29235C"></stop></linearGradient><linearGradient id="eem-logo-color-b" x1="50.014%" x2="50.014%" y1="-.174%" y2="99.95%"><stop offset="0%" stop-color="#0092A5"></stop><stop offset="27.58%" stop-color="#0098B6"></stop><stop offset="85.92%" stop-color="#2FA8DF"></stop><stop offset="88.93%" stop-color="#36A9E1"></stop><stop offset="100%" stop-color="#36A9E1"></stop></linearGradient></defs><g fill="none"><polygon fill="#211261" points="172.9 36.9 163.7 36.9 163.7 41.9 172.4 41.9 172.4 48.5 163.7 48.5 163.7 53.6 172.9 53.6 172.9 60.2 155.9 60.2 155.9 30.3 172.9 30.3"></polygon><polygon fill="#211261" points="190.2 30.3 190.2 53.6 199.5 53.6 199.5 60.2 182.4 60.2 182.4 30.3"></polygon><path fill="#211261" d="M205.5 45.3C205.5 43.1 205.9 41 206.7 39.1 207.5 37.2 208.7 35.5 210.1 34.1 211.6 32.7 213.3 31.6 215.3 30.8 217.3 30 219.5 29.6 222 29.6 224.4 29.6 226.6 30 228.6 30.8 230.6 31.6 232.4 32.7 233.8 34.1 235.3 35.5 236.4 37.2 237.2 39.1 238 41 238.4 43.1 238.4 45.3 238.4 47.5 238 49.6 237.2 51.5 236.4 53.4 235.2 55.1 233.8 56.5 232.3 57.9 230.6 59 228.6 59.8 226.6 60.6 224.4 61 222 61 219.6 61 217.4 60.6 215.3 59.8 213.3 59 211.5 57.9 210.1 56.5 208.6 55.1 207.5 53.4 206.7 51.5 205.9 49.5 205.5 47.5 205.5 45.3M213.6 45.3C213.6 46.5 213.8 47.6 214.3 48.6 214.7 49.6 215.4 50.5 216.1 51.2 216.9 51.9 217.8 52.5 218.8 52.9 219.8 53.3 220.9 53.5 222 53.5 223.1 53.5 224.2 53.3 225.2 52.9 226.2 52.5 227.1 51.9 227.9 51.2 228.7 50.5 229.3 49.6 229.7 48.6 230.1 47.6 230.4 46.5 230.4 45.3 230.4 44.1 230.2 43 229.7 42 229.3 41 228.6 40.1 227.9 39.4 227.1 38.7 226.2 38.1 225.2 37.7 224.2 37.3 223.1 37.1 222 37.1 220.9 37.1 219.8 37.3 218.8 37.7 217.8 38.1 216.9 38.7 216.1 39.4 215.3 40.1 214.7 41 214.3 42 213.8 43 213.6 44.1 213.6 45.3M272.2 60.2L262.5 60.2 255.1 48.7 255.1 60.2 247.3 60.2 247.3 30.4 259.4 30.4C261.1 30.4 262.5 30.6 263.8 31.1 265 31.6 266.1 32.3 266.9 33.1 267.7 33.9 268.3 34.9 268.7 36 269.1 37.1 269.3 38.3 269.3 39.6 269.3 41.9 268.8 43.7 267.7 45.1 266.6 46.5 265 47.5 262.9 48L272.2 60.2zM255.2 43.7L256.7 43.7C258.2 43.7 259.4 43.4 260.2 42.8 261 42.2 261.4 41.3 261.4 40.1 261.4 38.9 261 38 260.2 37.4 259.4 36.8 258.2 36.5 256.7 36.5L255.2 36.5 255.2 43.7zM304.2 60.2L294.5 60.2 287.1 48.7 287.1 60.2 279.3 60.2 279.3 30.4 291.4 30.4C293.1 30.4 294.5 30.6 295.8 31.1 297 31.6 298.1 32.3 298.9 33.1 299.7 33.9 300.3 34.9 300.7 36 301.1 37.1 301.3 38.3 301.3 39.6 301.3 41.9 300.8 43.7 299.7 45.1 298.6 46.5 297 47.5 294.9 48L304.2 60.2zM287.2 43.7L288.7 43.7C290.2 43.7 291.4 43.4 292.2 42.8 293 42.2 293.4 41.3 293.4 40.1 293.4 38.9 293 38 292.2 37.4 291.4 36.8 290.2 36.5 288.7 36.5L287.2 36.5 287.2 43.7z"></path><rect width="7.8" height="29.8" x="311.4" y="30.3" fill="#211261"></rect><polygon fill="#211261" points="346.4 36.9 337.2 36.9 337.2 41.9 345.9 41.9 345.9 48.5 337.2 48.5 337.2 53.6 346.4 53.6 346.4 60.2 329.4 60.2 329.4 30.3 346.4 30.3"></polygon><polygon fill="#211261" points="367.2 36.9 367.2 60.2 359.5 60.2 359.5 36.9 353.1 36.9 353.1 30.3 373.6 30.3 373.6 36.9"></polygon><path fill="#211261" d="M397.9,55 L386.8,55 L385,60.2 L376.7,60.2 L388.1,30.4 L396.6,30.4 L408,60.2 L399.7,60.2 L397.9,55 Z M395.8,49.1 L392.3,39.2 L388.8,49.1 L395.8,49.1 Z"></path><polygon fill="#211261" points="172.9 73.9 163.7 73.9 163.7 78.9 172.4 78.9 172.4 85.4 163.7 85.4 163.7 90.6 172.9 90.6 172.9 97.2 155.9 97.2 155.9 67.3 172.9 67.3"></polygon><path fill="#211261" d="M207.2 97.2L197.5 97.2 190.1 85.7 190.1 97.2 182.3 97.2 182.3 67.4 194.4 67.4C196.1 67.4 197.5 67.6 198.8 68.1 200 68.6 201.1 69.3 201.9 70.1 202.7 70.9 203.3 71.9 203.7 73 204.1 74.1 204.3 75.3 204.3 76.6 204.3 78.9 203.8 80.7 202.7 82.1 201.6 83.5 200 84.5 197.9 85L207.2 97.2zM190.2 80.7L191.7 80.7C193.2 80.7 194.4 80.4 195.2 79.8 196 79.2 196.4 78.3 196.4 77.1 196.4 75.9 196 75 195.2 74.4 194.4 73.8 193.2 73.5 191.7 73.5L190.2 73.5 190.2 80.7zM239.3 97.2L229.6 97.2 222.2 85.7 222.2 97.2 214.4 97.2 214.4 67.4 226.5 67.4C228.2 67.4 229.6 67.6 230.9 68.1 232.1 68.6 233.2 69.3 234 70.1 234.8 70.9 235.4 71.9 235.8 73 236.2 74.1 236.4 75.3 236.4 76.6 236.4 78.9 235.9 80.7 234.8 82.1 233.7 83.5 232.1 84.5 230 85L239.3 97.2zM222.2 80.7L223.7 80.7C225.2 80.7 226.4 80.4 227.2 79.8 228 79.2 228.4 78.3 228.4 77.1 228.4 75.9 228 75 227.2 74.4 226.4 73.8 225.2 73.5 223.7 73.5L222.2 73.5 222.2 80.7z"></path><polygon fill="#211261" points="263.4 73.9 254.2 73.9 254.2 78.9 262.9 78.9 262.9 85.4 254.2 85.4 254.2 90.6 263.4 90.6 263.4 97.2 246.5 97.2 246.5 67.3 263.4 67.3"></polygon><polygon fill="#211261" points="280.7 79.6 290.2 67.3 299.8 67.3 287.9 81.4 300.9 97.2 290.8 97.2 280.7 84.2 280.7 97.2 273 97.2 273 67.3 280.7 67.3"></polygon><path fill="#211261" d="M326.5,92 L315.4,92 L313.6,97.2 L305.3,97.2 L316.7,67.4 L325.2,67.4 L336.6,97.2 L328.3,97.2 L326.5,92 Z M324.5,86.1 L321,76.2 L317.5,86.1 L324.5,86.1 Z"></path><polygon fill="#211261" points="360 97.2 365.1 67.3 372.8 67.3 378.7 83.2 384.7 67.3 392.4 67.3 397.4 97.2 389.7 97.2 387.1 80 380.1 97.2 377 97.2 370.3 80 367.7 97.2"></polygon><path fill="#211261" d="M424.6 92L413.5 92 411.7 97.2 403.4 97.2 414.8 67.4 423.3 67.4 434.7 97.2 426.4 97.2 424.6 92zM422.5 86.1L419 76.2 415.5 86.1 422.5 86.1zM466.8 97.2L457.1 97.2 449.7 85.7 449.7 97.2 442 97.2 442 67.4 454 67.4C455.7 67.4 457.1 67.6 458.4 68.1 459.6 68.6 460.7 69.3 461.5 70.1 462.3 70.9 462.9 71.9 463.3 73 463.7 74.1 463.9 75.3 463.9 76.6 463.9 78.9 463.4 80.7 462.3 82.1 461.2 83.5 459.6 84.5 457.5 85L466.8 97.2zM449.7 80.7L451.2 80.7C452.7 80.7 453.9 80.4 454.7 79.8 455.5 79.2 455.9 78.3 455.9 77.1 455.9 75.9 455.5 75 454.7 74.4 453.9 73.8 452.7 73.5 451.2 73.5L449.7 73.5 449.7 80.7z"></path><rect width="7.8" height="29.8" x="474" y="67.3" fill="#211261"></rect><path fill="url(#eem-logo-color-a)" d="M145.2,0.9 C141.9,1.5 130,15.8 104.2,21.9 C78.9,27.9 81.8,48.6 109.7,59.8 C110.8,60.3 110.9,61.3 110.9,61.6 C110.9,62 110.8,62.9 109.7,63.3 C109.3,63.4 108.9,63.6 108.4,63.7 C104,64.9 97.2,66 91.7,66.8 C89.5,67.1 87.4,67.5 85.8,67.7 C74,69.8 51.1,77.8 49.2,93 C47.8,104.2 53.1,123.9 98.5,126.6 C106.1,127.1 124.9,125.8 131.7,122 C131.7,122 131.7,122 131.8,122 C134.1,120.9 135.2,118.6 134.7,116.2 C134.2,113.7 132.1,111.8 129.4,111.7 L123.9,111.3 C98.5,109.7 66.2,107 72.7,84.5 C73.7,80.9 78.6,76 95,73.4 C95.7,73.3 113.4,70.4 121.8,67 C123.3,66.4 124.4,65.7 125.4,65.1 C125.7,64.9 126,64.7 126.4,64.5 C129.8,62.5 131.6,60 131.8,57.1 C132.2,50.7 124.3,44.7 118.6,40.3 C116.8,39 115.2,37.7 114.5,37 C113.2,35.5 112.7,34 113.1,32.7 C113.5,31.4 114.9,30.3 116.9,29.8 C126.3,27.3 144,23.7 150.1,9.7 C150.3,9.2 152.7,5.1 150.8,2.3 C150.2,1.4 149,0.5 146.9,0.5 C146.3,0.7 145.8,0.8 145.2,0.9"></path><path fill="url(#eem-logo-color-b)" d="M22,23.9 C22,23.9 22,23.9 22,23.9 C20.5,24.4 19.6,25.7 19.7,27.3 C19.8,28.9 21,30.2 22.6,30.5 L26,31.2 C41.6,34.3 61.4,38.5 55.6,51.9 C54.7,54 51.3,56.7 40.9,57 C40.4,57 29.2,57.4 23.8,58.8 C22.8,59.1 22.1,59.4 21.4,59.7 C21.2,59.8 21,59.9 20.8,60 C18.5,61 17.2,62.4 16.9,64.1 C16.2,68 20.5,72.4 23.7,75.5 C24.7,76.5 25.6,77.4 25.9,77.9 C26.6,78.9 26.8,79.9 26.4,80.7 C26,81.5 25.1,82 23.8,82.2 C17.8,83 6.5,83.8 1.6,92 C1.4,92.3 -0.4,94.6 0.6,96.5 C1,97.2 1.8,98.1 3.9,98 C6,97.9 14.5,90 31,88.3 C47.1,86.6 47,73.6 30.7,64.4 C30,64 30.1,63.4 30.1,63.2 C30.1,63 30.3,62.4 31,62.3 C31.3,62.2 31.5,62.2 31.8,62.2 C34.6,61.8 39,61.7 42.4,61.6 C43.8,61.6 45.1,61.5 46.1,61.5 C53.6,61.2 68.4,58 70.8,48.7 C72.5,41.9 70.8,29.3 43,23.9 C40.4,23.4 35.7,23 31.2,23 C27.5,22.8 24.1,23.1 22,23.9"></path><path fill="#008AAB" d="M442,37.3 C442,33.6 444.7,31 448.5,31 C451.8,31 454.2,33 454.8,35.9 L451.6,35.9 C451.1,34.7 450,33.8 448.4,33.8 C446.3,33.8 445,35.3 445,37.3 C445,39.4 446.4,40.8 448.4,40.8 C449.9,40.8 451.1,40 451.6,38.7 L454.8,38.7 C454.2,41.6 451.7,43.6 448.5,43.6 C444.7,43.7 442,41 442,37.3"></path><rect width="3" height="12.2" x="456.6" y="31.2" fill="#008AAB"></rect><polygon fill="#008AAB" points="462.1 31.2 471 31.2 471 34 465.1 34 465.1 35.9 469.9 35.9 469.9 38.5 465.1 38.5 465.1 43.4 462.1 43.4"></polygon><path fill="#008AAB" d="M472.8,31.2 L477.6,31.2 C480.9,31.2 482.4,33 482.4,35.5 C482.4,38 480.9,39.8 477.6,39.8 L475.8,39.8 L475.8,43.4 L472.8,43.4 L472.8,31.2 Z M477.6,37 C478.9,37 479.3,36.4 479.3,35.5 C479.3,34.6 478.9,34 477.6,34 L475.8,34 L475.8,37 L477.6,37 Z"></path><polygon fill="#008AAB" points="443.2 48.5 446.2 48.5 446.2 57.9 451.9 57.9 451.9 60.7 443.2 60.7"></polygon><polygon fill="#008AAB" points="455.5 48.5 458.6 48.5 458.6 53.1 463.1 53.1 463.1 48.5 466.2 48.5 466.2 60.7 463.1 60.7 463.1 55.9 458.6 55.9 458.6 60.7 455.5 60.7"></polygon><rect width="3" height="12.2" x="470.5" y="48.5" fill="#008AAB"></rect><rect width="3" height="12.2" x="477.9" y="48.5" fill="#008AAB"></rect></g></svg> 